<svg xmlns="http://www.w3.org/2000/svg" viewBox="0 0 448 512"><!-- Font Awesome Free 6.0.0-alpha1 by @fontawesome - https://fontawesome.com License - https://fontawesome.com/license/free (Icons: CC BY 4.0, Fonts: SIL OFL 1.1, Code: MIT License) --><path d="M415 451H256V499C256 508 249 515 240 515H208C199 515 192 508 192 499V451H33C5 451 -11 417 8 395L77 315H62C37 315 23 286 39 267L100 195H89C68 195 56 173 70 158L205 11C215 1 233 1 243 11L378 158C392 173 380 195 359 195H348L409 267C425 286 411 315 386 315H371L440 395C459 417 443 451 415 451Z"/></svg>